<svg id="Layer_1" data-name="Layer 1" xmlns="http://www.w3.org/2000/svg" viewBox="0 0 240.4 88.85" width="245px" height="92px"><defs><style>.cls-1{fill:#0b58ad;}.cls-2{fill:#f4a62f;}.cls-3{fill:#0a57ac;}.cls-4{fill:#aaa;}</style></defs><path class="cls-1" d="M13.37,63.81,8.3,87.75H12a15.22,15.22,0,0,0,8.84-2.4c2.34-1.62,4.34-6.69,5-9.58s.66-8-.95-9.6-4.34-2.35-8-2.35Zm-7-2.1h9.94a44.28,44.28,0,0,1,7.4.53,13.55,13.55,0,0,1,4.81,1.52A10,10,0,0,1,33,68.69a12.17,12.17,0,0,1,.33,7.1,16.7,16.7,0,0,1-3.44,7.14,19.08,19.08,0,0,1-6.74,4.91,22.07,22.07,0,0,1-5.68,1.63A53.52,53.52,0,0,1,9.64,90H4.12a3,3,0,0,1-3-4Zm33.76,1h7C45.24,72,43.31,80.75,41.4,90H37.49c-2.46,0-2.72-1.56-2.37-3.31Zm4.48,24.88c3.31,0,11.08.09,14.78.09,4.65-.26,5.7-2,6.25-5.17.36-1.93-3.13-3.94-6.79-5.31C49.92,74,48.76,67,56.33,63.39c2.88-1.35,6.2-1.71,10.29-1.71a18.35,18.35,0,0,1,3.47.36,53.78,53.78,0,0,1,5.44,1.21l-.88,2.37c-4.4-.72-6.59-1.24-10-1.24a10.17,10.17,0,0,0-3.64.73c-3.87,1.43-1.87,5.38,1.31,7,4,2.07,8.42,3.08,9.88,5.29a6,6,0,0,1,1.15,4.64c-.51,2.6-1.94,4.11-4.71,5.62A23,23,0,0,1,57.79,90c-3.06,0-10.5,0-13.65,0Zm66.72-23.25L108.81,78c-.53,2.59-1.17,5.31-.33,6.46,1.79,2.57,8.57,2.28,10.58.28a14.83,14.83,0,0,0,3.43-7.54l2.43-13.13,7.4-.06L127.74,89.5l-6.66.06.55-2.93c-2.84,2.43-6.18,3.37-11,3.37-4,0-6.24-1-8-3s-2.09-4.9-1.42-8.75l2.67-13.87a62.41,62.41,0,0,0-7.4-.15,16.45,16.45,0,0,0-9,2.55c-6.39,4.7-7.79,20,5.18,20.37a28.87,28.87,0,0,0,5.32-.86l.27-.07-.37,2.7c-.63.12-3,.74-3.45.79a23.57,23.57,0,0,1-3.84.3c-5.46,0-9.54-1.28-12.32-3.91s-3.67-6.18-2.83-10.5A15.45,15.45,0,0,1,82.3,65.5a23,23,0,0,1,13.93-4.1c4.93,0,7.8,0,12.18.19,3.51.12,3.19,1.8,2.94,2.78m24.59-.53,22.23-.07c.82,3-.17,5.74-3.07,8.24L138.31,87.46h17.95V90H131.49c.3-4,.36-5.38,4.07-8.9l15.52-14.46h-15.5l.36-2.8Zm32.89,25.93-2.15-.07-.16-4.51,2.62.27,2.21.15L170.94,90l-2.11-.23Zm2.22-8-3.69-.43c.18-2-.59-17.21-.67-18.93l-.23-3.07c1,0,.85,0,5.25.5,2.67.21,3.1.44,3.91.44l-1.06,3.85c-.89,3-3.28,16.56-3.51,17.64" transform="translate(-1.01 -1.16)"/><path class="cls-2" d="M27.22,3.15a29.38,29.38,0,0,1,8.69,1.29,23.63,23.63,0,0,1,7,3.44c4,2.92,6.16,6.73,6.16,10.75,0,4.5-2.79,8.79-7.66,11.74l-1.65,1,1,1.69a5.61,5.61,0,0,1,.75,2.78,6.4,6.4,0,0,1-2.66,5,11.32,11.32,0,0,1-7,2.27,11.37,11.37,0,0,1-7-2.27,6.4,6.4,0,0,1-2.66-5,2.42,2.42,0,0,1,0-.38l.12-1.71-1.67-.39A23.22,23.22,0,0,1,9.51,27.65a12.58,12.58,0,0,1-4.13-9c0-4,2.18-7.83,6.16-10.75a23.51,23.51,0,0,1,7-3.44,29.38,29.38,0,0,1,8.69-1.29m0-2C14.05,1.16,3.38,9,3.38,18.63c0,7.84,7,14.48,16.75,16.69,0,.17,0,.36,0,.53,0,5.11,5.23,9.24,11.67,9.24S43.45,41,43.45,35.85a7.73,7.73,0,0,0-1-3.77c5.26-3.2,8.62-8,8.62-13.45C51.06,9,40.39,1.16,27.22,1.16Zm18,47.55c2.51,0,4.62,1.48,4.62,3.24S47.7,55.2,45.19,55.2,40.58,53.71,40.58,52s2.1-3.24,4.61-3.24m0-2c-3.65,0-6.61,2.35-6.61,5.24s3,5.25,6.61,5.25,6.62-2.35,6.62-5.25S48.85,46.71,45.19,46.71Z" transform="translate(-1.01 -1.16)"/><path class="cls-3" d="M93.36,52.75a3.45,3.45,0,0,1-1.65,2.61l-1.73-1A3.39,3.39,0,0,0,91.35,52l1.45-7a2.2,2.2,0,0,0-.51-2.18,2.92,2.92,0,0,0-2.2-.85,4.5,4.5,0,0,0-2.79,1,4.15,4.15,0,0,0-1.62,2.41,7.65,7.65,0,0,0,.06,2.5,7.44,7.44,0,0,1,.05,2.43,3.05,3.05,0,0,1-.21.67,16.71,16.71,0,0,1,2.89-2.78,1.64,1.64,0,0,1-1.38-.78,1.76,1.76,0,0,1-.21-1.48,2.74,2.74,0,0,1,1-1.6,2.81,2.81,0,0,1,1.8-.69,1.71,1.71,0,0,1,1.46.69,2,2,0,0,1,.34,1.6,7.75,7.75,0,0,1-2.33,3.53c-1.78,1.76-2.82,2.81-3.1,3.17a4.44,4.44,0,0,0-.88,1.79H83c.19-.87.36-1.67.53-2.4a8.39,8.39,0,0,0,.21-2.93c-.09-.61-.18-1.24-.25-1.89a6,6,0,0,1,0-1.71A6.55,6.55,0,0,1,86,41.56,7.07,7.07,0,0,1,90.4,40a5,5,0,0,1,3.7,1.27A3.9,3.9,0,0,1,95,45.09Zm-3.1-6.83a.91.91,0,0,0-.16-.75.8.8,0,0,0-.68-.3,1.28,1.28,0,0,0-.83.3,1.17,1.17,0,0,0-.44.75.88.88,0,0,0,.12.76A.81.81,0,0,0,89,47a1.3,1.3,0,0,0,.83-.3A1.35,1.35,0,0,0,90.26,45.92Z" transform="translate(-1.01 -1.16)"/><path class="cls-3" d="M96.43,38.56a23.12,23.12,0,0,0-7.65-1.41,28.75,28.75,0,0,0-3.41.21c1-3.14,3-4.72,6.16-4.72a4.58,4.58,0,0,1,3.93,1.64A6,6,0,0,1,96.43,38.56Zm-1.77-2.08a2.3,2.3,0,0,0-.93-1.65,3.29,3.29,0,0,0-2.24-.78,5.1,5.1,0,0,0-2.29.51,3.08,3.08,0,0,0-1.44,1.36,9.79,9.79,0,0,1,1.9-.14A17.56,17.56,0,0,1,94.66,36.48Z" transform="translate(-1.01 -1.16)"/><path class="cls-3" d="M109.21,44.34l-1.62,7.71c-.36,1.74-.82,2.76-1.38,3.07l-1.7-.78a4,4,0,0,0,.78-2.61,7.94,7.94,0,0,0-.76-3.25,5.26,5.26,0,0,0-1.68-2.31,3.2,3.2,0,0,0-2,1.16,5.05,5.05,0,0,0-1.13,2h.81a2.13,2.13,0,0,1,1.6.65,2.1,2.1,0,0,1,.66,1.56,2.79,2.79,0,0,1-1.08,2.26,3.57,3.57,0,0,1-2.34.88,2.37,2.37,0,0,1-1.66-.58,2,2,0,0,1-.63-1.53,8.34,8.34,0,0,1,2.3-6.27,5.5,5.5,0,0,1,4-1.8,6.45,6.45,0,0,1,2.58,2.89c.21.77.42,1.55.64,2.32a14.46,14.46,0,0,1,.07-3l.46-2.57a1.27,1.27,0,0,0,0-.32,1.49,1.49,0,0,0-.9-1.33,4.43,4.43,0,0,0-2.17-.5,4.88,4.88,0,0,0-2.58.69,3.7,3.7,0,0,0-1.61,1.85H97.73a5.52,5.52,0,0,1,2.4-3.25A7.93,7.93,0,0,1,104.51,40a6.66,6.66,0,0,1,2.69.53,6.85,6.85,0,0,1,2.65-1.9l1.58,1a7.39,7.39,0,0,0-2.71,2,2.82,2.82,0,0,1,.6,1.79A4.21,4.21,0,0,1,109.21,44.34ZM101.15,52a.94.94,0,0,0-.18-.84.93.93,0,0,0-.77-.35,1.38,1.38,0,0,0-.92.35,1.47,1.47,0,0,0-.53.84,1,1,0,0,0,.18.85.94.94,0,0,0,.77.35,1.43,1.43,0,0,0,.92-.35A1.52,1.52,0,0,0,101.15,52Z" transform="translate(-1.01 -1.16)"/><path class="cls-3" d="M121.61,52.75A3.45,3.45,0,0,1,120,55.36l-1.73-1A3.39,3.39,0,0,0,119.6,52l1.52-7.15a2.17,2.17,0,0,0-.67-2.12,3.2,3.2,0,0,0-2.18-.74A4,4,0,0,0,115.5,43,4.73,4.73,0,0,0,114,45.5a11.62,11.62,0,0,0-.1,1.29,10.51,10.51,0,0,1-.18,1.56l-.21,1s.09-.28.28-.76a11.18,11.18,0,0,0,.39-1.11A8.91,8.91,0,0,1,115.8,45a3.38,3.38,0,0,1,2.4-1.27,1.87,1.87,0,0,1,1.51.67,1.77,1.77,0,0,1,.35,1.62,2.68,2.68,0,0,1-1,1.6,2.85,2.85,0,0,1-1.81.69,1.84,1.84,0,0,1-1.45-.64,24.86,24.86,0,0,0-2.46,6.73h-2.18l.45-2.26a12.53,12.53,0,0,0,.2-3.62,12.15,12.15,0,0,1,0-3.09,6.43,6.43,0,0,1,2.61-3.95,7.22,7.22,0,0,1,4.4-1.45,5,5,0,0,1,3.49,1.17,3.58,3.58,0,0,1,1,3.63ZM118.76,46a.91.91,0,0,0-.14-.78.85.85,0,0,0-.71-.31,1.22,1.22,0,0,0-.82.31,1.43,1.43,0,0,0-.48.78.81.81,0,0,0,.85,1.06,1.26,1.26,0,0,0,.82-.3A1.35,1.35,0,0,0,118.76,46Z" transform="translate(-1.01 -1.16)"/><path class="cls-3" d="M129.61,31.76q-2.15,5.85-7.54,5.85a4.49,4.49,0,0,1-3.06-.86,2.16,2.16,0,0,1-.67-2.2,3.09,3.09,0,0,1,1.09-1.73,2.82,2.82,0,0,1,1.86-.7,1.87,1.87,0,0,1,1.62.72,2,2,0,0,1,.32,1.71,2,2,0,0,1-.81,1.4c2.44-.09,4.15-1.49,5.11-4.19Zm-7.79,2.79a.87.87,0,0,0-.14-.78.84.84,0,0,0-.7-.32,1.25,1.25,0,0,0-.83.32,1.45,1.45,0,0,0-.48.78,1,1,0,0,0,.16.75.83.83,0,0,0,.69.3,1.36,1.36,0,0,0,.85-.3A1.14,1.14,0,0,0,121.82,34.55Z" transform="translate(-1.01 -1.16)"/><path class="cls-3" d="M137.46,44.34l-1.62,7.71c-.36,1.74-.81,2.76-1.38,3.07l-1.7-.78a4,4,0,0,0,.78-2.61,7.94,7.94,0,0,0-.76-3.25,5.19,5.19,0,0,0-1.68-2.31,3.2,3.2,0,0,0-2,1.16,5.05,5.05,0,0,0-1.13,2h.81a2.13,2.13,0,0,1,1.6.65,2.1,2.1,0,0,1,.66,1.56,2.79,2.79,0,0,1-1.08,2.26,3.57,3.57,0,0,1-2.34.88,2.37,2.37,0,0,1-1.66-.58,2,2,0,0,1-.63-1.53,8.38,8.38,0,0,1,2.3-6.27,5.5,5.5,0,0,1,4-1.8,6.45,6.45,0,0,1,2.58,2.89c.21.77.42,1.55.64,2.32a14.46,14.46,0,0,1,.07-3l.46-2.57a1.27,1.27,0,0,0,0-.32,1.49,1.49,0,0,0-.9-1.33,4.43,4.43,0,0,0-2.17-.5,4.88,4.88,0,0,0-2.58.69,3.7,3.7,0,0,0-1.61,1.85H126a5.52,5.52,0,0,1,2.4-3.25A7.93,7.93,0,0,1,132.76,40a6.66,6.66,0,0,1,2.69.53,6.85,6.85,0,0,1,2.65-1.9l1.58,1a7.39,7.39,0,0,0-2.71,2,2.82,2.82,0,0,1,.6,1.79A4.21,4.21,0,0,1,137.46,44.34ZM129.4,52a.94.94,0,0,0-.18-.84.93.93,0,0,0-.77-.35,1.38,1.38,0,0,0-.92.35A1.47,1.47,0,0,0,127,52a1,1,0,0,0,.18.85.94.94,0,0,0,.77.35,1.43,1.43,0,0,0,.92-.35A1.52,1.52,0,0,0,129.4,52Z" transform="translate(-1.01 -1.16)"/><path class="cls-3" d="M146.34,52a3.33,3.33,0,0,1-1.2,1.9,3.13,3.13,0,0,1-2,.77,2.18,2.18,0,0,1-1.83-.81,2.35,2.35,0,0,1-.39-2l3.7-17.4-2.78,3.1-1.31-.42a24.35,24.35,0,0,0,.32-6.17h1.9c-.12,1.86-.26,3.26-.42,4.19l3.31-3.91a1.77,1.77,0,0,1,1.14.67,1.54,1.54,0,0,1,.27,1.34l-3.42,16.17a1.89,1.89,0,0,1,.64-.07,2.12,2.12,0,0,1,1.72.77A2.17,2.17,0,0,1,146.34,52Zm-1.48,0a1,1,0,0,0-.18-.85.94.94,0,0,0-.77-.35,1.43,1.43,0,0,0-.92.35,1.52,1.52,0,0,0-.53.85.94.94,0,0,0,.18.84.93.93,0,0,0,.78.35,1.37,1.37,0,0,0,.91-.35A1.47,1.47,0,0,0,144.86,52Z" transform="translate(-1.01 -1.16)"/><path class="cls-3" d="M160,52.76a3.43,3.43,0,0,1-1.65,2.6l-1.73-1A3.39,3.39,0,0,0,158,52L159.83,43c.16-.72.07-1.09-.28-1.09a.84.84,0,0,0-.74.53l-6.73,11.94h-2.47l1.91-9a3,3,0,0,1-.6.07,2.09,2.09,0,0,1-1.75-.79,2.19,2.19,0,0,1-.36-1.92A3.29,3.29,0,0,1,150,40.85a3.11,3.11,0,0,1,2.06-.77,2.14,2.14,0,0,1,1.81.81,2.45,2.45,0,0,1,.37,2l-1.13,5.25a26.79,26.79,0,0,1-1.2,3.73c.47-1,1-2.18,1.7-3.45l3.31-6.27a3.34,3.34,0,0,1,3.1-2.11q2.64,0,2,3Zm-7.29-10a.94.94,0,0,0-.18-.84.9.9,0,0,0-.77-.35,1.38,1.38,0,0,0-.92.35,1.47,1.47,0,0,0-.53.84,1,1,0,0,0,.18.85,1,1,0,0,0,.77.35,1.43,1.43,0,0,0,.92-.35A1.52,1.52,0,0,0,152.68,42.75Z" transform="translate(-1.01 -1.16)"/><path class="cls-3" d="M174,50.85c-.55,2.57-2.55,3.84-6,3.84s-4.88-1.27-4.37-3.84l.36-1.62a3.2,3.2,0,0,1,1.93-2.39,3,3,0,0,1-.91-3.21,4.65,4.65,0,0,1,1.39-2.55,3.66,3.66,0,0,1,2.59-1,2.11,2.11,0,0,1,1.65.65,1.85,1.85,0,0,1,.39,1.71,3,3,0,0,1-1,1.65,2.82,2.82,0,0,1-1.9.71,2.21,2.21,0,0,1-.95-.18c0,.89.32,1.34,1,1.34h2.5l-.38,1.72h-2.5a1.42,1.42,0,0,0-1,.49,2.39,2.39,0,0,0-.59,1.12l-.32,1.61c-.28,1.26.57,1.89,2.57,1.89s3.17-.63,3.45-1.89l1.94-9.17a3.41,3.41,0,0,1,1.65-2.57l1.94.81a3.32,3.32,0,0,0-1.58,2.57Zm-4.3-8.38a.89.89,0,0,0-.16-.81,1,1,0,0,0-.76-.32,1.29,1.29,0,0,0-.86.32,1.41,1.41,0,0,0-.48.81,1,1,0,0,0,.14.81.9.9,0,0,0,.74.32,1.34,1.34,0,0,0,.88-.32A1.39,1.39,0,0,0,169.66,42.47Z" transform="translate(-1.01 -1.16)"/><path class="cls-4" d="M200.78,89.25h-2.09V80.08a2.47,2.47,0,0,0-1-2,3.75,3.75,0,0,0-2.26-.71,3.08,3.08,0,0,0-2.42,1,3.4,3.4,0,0,0-.91,2.35,8.13,8.13,0,0,0,.15,1.23,8.82,8.82,0,0,1,.15,1.5v.94s0-.26.12-.72.13-.82.15-1.06a6.25,6.25,0,0,1,1.05-2.36,2.47,2.47,0,0,1,2-1.21,2.21,2.21,0,0,1,1.58.64,2,2,0,0,1,.67,1.55,2.07,2.07,0,0,1-.67,1.53,2.18,2.18,0,0,1-1.58.65,2.22,2.22,0,0,1-1.52-.6,20.46,20.46,0,0,0-1,6.43h-2.09V87.09a12.21,12.21,0,0,0-.55-3.45A11,11,0,0,1,190,80.7a4.71,4.71,0,0,1,1.69-3.77,6.25,6.25,0,0,1,7.47-.27,4.15,4.15,0,0,1,1.65,3.47Zm-4.07-8a1,1,0,0,0-.31-.74,1,1,0,0,0-.74-.31.92.92,0,0,0-.72.31,1,1,0,0,0-.29.74,1,1,0,0,0,1,1,1,1,0,0,0,.74-.29A.92.92,0,0,0,196.71,81.24Z" transform="translate(-1.01 -1.16)"/><path class="cls-4" d="M203.24,68.14c-.41,2.13-1.15,3.6-2.24,4.42a7.85,7.85,0,0,1-4.77,1.23h-.94V72.68c.9-.07,1.45-.39,1.65-1a2,2,0,0,1-1.72-2,1.79,1.79,0,0,1,.58-1.35,1.93,1.93,0,0,1,1.38-.54,1.88,1.88,0,0,1,1.43.56,2,2,0,0,1,.52,1.43,4.11,4.11,0,0,1-1.48,2.79,4.58,4.58,0,0,0,2.69-1.56,4.82,4.82,0,0,0,1.15-2.91ZM198,69.79a.89.89,0,0,0-.25-.63.88.88,0,1,0,0,1.25A.89.89,0,0,0,198,69.79Z" transform="translate(-1.01 -1.16)"/><path class="cls-4" d="M215.36,82.89a2.15,2.15,0,0,1-.71,1.85A2.39,2.39,0,0,1,216,87a2.51,2.51,0,0,1-2.52,2.54,2.53,2.53,0,0,1-2.53-2.19c-.71.36-1.23.63-1.54.81a4.56,4.56,0,0,0-1.28,1.11H206V80.6a3.25,3.25,0,0,1-.57.06,2.47,2.47,0,0,1-1.82-.75,2.56,2.56,0,0,1-.74-1.84,2.53,2.53,0,0,1,2.56-2.52,2.51,2.51,0,0,1,1.9.77,2.67,2.67,0,0,1,.76,2v8.56a12.88,12.88,0,0,1,2.43-1.18,6.89,6.89,0,0,0,2.32-1.42,2.31,2.31,0,0,0,.47-1.61v-6.8h2.09Zm-8.82-4.79a1.1,1.1,0,0,0-.34-.8,1.07,1.07,0,0,0-.81-.34,1.15,1.15,0,0,0,0,2.29,1.07,1.07,0,0,0,.81-.34A1.11,1.11,0,0,0,206.54,78.1Zm8,8.88a1.07,1.07,0,0,0-.34-.8,1.15,1.15,0,0,0-1.61,0,1.07,1.07,0,0,0-.34.8,1,1,0,0,0,.34.79,1.15,1.15,0,0,0,1.61,0A1,1,0,0,0,214.55,87Z" transform="translate(-1.01 -1.16)"/><path class="cls-4" d="M230.1,89.25H228V81.77c0-.6-.13-.9-.37-.9s-.44.28-.78.84l-4.37,7.54h-2V80.6a3.25,3.25,0,0,1-.57.06,2.47,2.47,0,0,1-1.82-.75,2.56,2.56,0,0,1-.74-1.84A2.53,2.53,0,0,1,220,75.55a2.53,2.53,0,0,1,1.9.77,2.67,2.67,0,0,1,.76,2v5a30.31,30.31,0,0,1-.4,3.57,10,10,0,0,1,1-2.66l1.85-3.2q.6-1,1.08-1.14a2.81,2.81,0,0,1-.68-1.76,2.53,2.53,0,0,1,2.56-2.55,2.44,2.44,0,0,1,1.82.74,2.47,2.47,0,0,1,.74,1.81,2.57,2.57,0,0,1-.94,2,3.88,3.88,0,0,1,.43,1.82Zm-9-11.15a1.1,1.1,0,0,0-.34-.8A1.09,1.09,0,0,0,220,77a1.15,1.15,0,0,0,0,2.29,1.09,1.09,0,0,0,.81-.34A1.11,1.11,0,0,0,221.12,78.1Zm8.08,0a1.1,1.1,0,0,0-.34-.8,1.09,1.09,0,0,0-.81-.34,1.15,1.15,0,0,0,0,2.29,1.09,1.09,0,0,0,.81-.34A1.11,1.11,0,0,0,229.2,78.1Z" transform="translate(-1.01 -1.16)"/><path class="cls-4" d="M241.42,89.25h-2.09V79.48a2,2,0,0,0-.64-1.53,2.5,2.5,0,0,0-1.75-.59,2.42,2.42,0,0,0-1.82.74,2.66,2.66,0,0,0-.74,1.86h-2a4.64,4.64,0,0,1,1.33-3.22,4.44,4.44,0,0,1,3.25-1.19,5.18,5.18,0,0,1,3.18,1,3.4,3.4,0,0,1,1.3,2.91Z" transform="translate(-1.01 -1.16)"/></svg>