<svg id="Layer_1" data-name="Layer 1" xmlns="http://www.w3.org/2000/svg" viewBox="0 0 126.78 63.75" width="129" height="66"><defs><style>.cls-1{fill:#0b58ad;}.cls-2{fill:#f4a62f;}.cls-3{fill:#0a57ac;}</style></defs><path class="cls-1" d="M10,45.78,6.38,63H9a11,11,0,0,0,6.34-1.72c1.69-1.17,3.12-4.8,3.59-6.88s.48-5.78-.68-6.89-3.11-1.68-5.76-1.68H10ZM5,44.27h7.13a31.83,31.83,0,0,1,5.31.38,9.86,9.86,0,0,1,3.46,1.09,7.24,7.24,0,0,1,3.22,3.54,8.83,8.83,0,0,1,.24,5.1A12,12,0,0,1,21.9,59.5,13.78,13.78,0,0,1,17.06,63,15.32,15.32,0,0,1,13,64.19a39.44,39.44,0,0,1-5.65.38h-4a2.17,2.17,0,0,1-2.13-2.86ZM29.23,45h5.05c-1.39,6.63-2.78,12.92-4.15,19.56h-2.8c-1.77,0-2-1.12-1.7-2.38Zm3.22,17.86c2.37,0,7.95.06,10.6.06,3.34-.19,4.09-1.41,4.49-3.71.26-1.39-2.25-2.83-4.87-3.81-6.42-2.31-7.26-7.31-1.83-9.94a17.29,17.29,0,0,1,7.39-1.22,13.43,13.43,0,0,1,2.49.26,39.56,39.56,0,0,1,3.9.87L54,47.08a40.5,40.5,0,0,0-7.2-.89,7.35,7.35,0,0,0-2.62.52c-2.77,1-1.34,3.86.94,5,2.89,1.49,6,2.21,7.09,3.8A4.35,4.35,0,0,1,53,58.89c-.37,1.86-1.4,3-3.39,4a16.55,16.55,0,0,1-7.75,1.64c-2.2,0-7.53,0-9.79,0ZM80.32,46.18,78.5,56c-.38,1.85-.84,3.81-.24,4.63,1.28,1.84,6.15,1.64,7.59.21a10.72,10.72,0,0,0,2.46-5.41L90.06,46l5.31,0L92.08,64.21l-4.78,0,.39-2.1c-2,1.75-4.43,2.42-7.91,2.42-2.84,0-4.48-.73-5.71-2.16s-1.5-3.51-1-6.28l1.92-10a46,46,0,0,0-5.31-.11,11.81,11.81,0,0,0-6.49,1.83c-4.59,3.38-5.59,14.32,3.71,14.62a20.81,20.81,0,0,0,3.82-.62l.19,0-.26,1.94c-.45.09-2.12.53-2.48.56a16.67,16.67,0,0,1-2.75.22c-3.92,0-6.85-.92-8.84-2.81s-2.64-4.43-2-7.53a11.08,11.08,0,0,1,5-7.24,16.56,16.56,0,0,1,10-2.94c3.54,0,5.6,0,8.74.14,2.52.08,2.29,1.28,2.11,2M98,45.8l15.94,0c.6,2.15-.12,4.12-2.2,5.91l-12,11.09h12.87v1.82H94.77c.21-2.89.26-3.86,2.92-6.39l11.14-10.37H97.71l.26-2Zm23.59,18.61L120,64.35l-.11-3.23,1.88.2,1.58.1-.29,3.15-1.52-.16Zm1.6-5.72-2.65-.3C120.64,57,120.09,46,120,44.8l-.17-2.2c.73,0,.61,0,3.77.36,1.92.15,2.22.31,2.8.31L125.67,46c-.63,2.16-2.35,11.88-2.51,12.65" transform="translate(-1.15 -0.82)"/><path class="cls-2" d="M20,2.26a21.06,21.06,0,0,1,6.23.92,16.75,16.75,0,0,1,5,2.47c2.86,2.1,4.43,4.83,4.43,7.71,0,3.23-2,6.31-5.5,8.43L29,22.51l.68,1.21a4,4,0,0,1,.54,2,4.58,4.58,0,0,1-1.91,3.56,8.13,8.13,0,0,1-5,1.63,8.16,8.16,0,0,1-5-1.63,4.6,4.6,0,0,1-1.9-3.56v-.28l.09-1.23-1.2-.27a16.75,16.75,0,0,1-7.93-4.1,9.05,9.05,0,0,1-3-6.48c0-2.88,1.56-5.61,4.42-7.71a16.63,16.63,0,0,1,5-2.47A21.08,21.08,0,0,1,20,2.26M20,.82C10.51.82,2.85,6.44,2.85,13.36c0,5.63,5.05,10.39,12,12,0,.13,0,.26,0,.39,0,3.66,3.75,6.63,8.38,6.63s8.37-3,8.37-6.63A5.45,5.45,0,0,0,30.87,23c3.78-2.3,6.19-5.76,6.19-9.65C37.06,6.44,29.4.82,20,.82ZM32.85,34.94c1.8,0,3.32,1.07,3.32,2.33s-1.52,2.33-3.32,2.33-3.31-1.07-3.31-2.33,1.51-2.33,3.31-2.33m0-1.43c-2.62,0-4.74,1.68-4.74,3.76S30.23,41,32.85,41s4.75-1.68,4.75-3.76S35.48,33.51,32.85,33.51Z" transform="translate(-1.15 -0.82)"/><path class="cls-3" d="M67.78,36.48a2.5,2.5,0,0,1-1.19,1.88l-1.23-.69a2.45,2.45,0,0,0,1-1.76l1-5A1.61,1.61,0,0,0,67,29.34a2.13,2.13,0,0,0-1.58-.6,3.19,3.19,0,0,0-2,.72,2.93,2.93,0,0,0-1.16,1.73,5.42,5.42,0,0,0,0,1.79,5.17,5.17,0,0,1,0,1.74,2.48,2.48,0,0,1-.15.48,12,12,0,0,1,2.07-2,1.17,1.17,0,0,1-1-.56,1.23,1.23,0,0,1-.16-1.06,2,2,0,0,1,.74-1.15A2,2,0,0,1,65.15,30a1.21,1.21,0,0,1,1,.49,1.36,1.36,0,0,1,.24,1.15,5.5,5.5,0,0,1-1.67,2.53c-1.27,1.26-2,2-2.22,2.27a3.24,3.24,0,0,0-.63,1.28H60.33c.14-.62.26-1.19.38-1.72a5.83,5.83,0,0,0,.15-2.1c-.07-.44-.12-.89-.17-1.35a3.84,3.84,0,0,1,0-1.23,4.67,4.67,0,0,1,1.81-2.81,5.08,5.08,0,0,1,3.14-1.09,3.59,3.59,0,0,1,2.65.92,2.79,2.79,0,0,1,.63,2.7Zm-2.22-4.89a.69.69,0,0,0-.12-.54.56.56,0,0,0-.49-.22.87.87,0,0,0-.59.22.84.84,0,0,0-.32.54.61.61,0,0,0,.09.54.56.56,0,0,0,.49.22.91.91,0,0,0,.6-.22A1,1,0,0,0,65.56,31.59Z" transform="translate(-1.15 -0.82)"/><path class="cls-3" d="M70,26.31a16.56,16.56,0,0,0-5.47-1,18.88,18.88,0,0,0-2.45.16,4.28,4.28,0,0,1,4.42-3.39,3.25,3.25,0,0,1,2.81,1.18A4.29,4.29,0,0,1,70,26.31Zm-1.26-1.48A1.64,1.64,0,0,0,68,23.64a2.36,2.36,0,0,0-1.6-.56,3.66,3.66,0,0,0-1.64.37,2.24,2.24,0,0,0-1,1,6.7,6.7,0,0,1,1.37-.1A12.49,12.49,0,0,1,68.71,24.83Z" transform="translate(-1.15 -0.82)"/><path class="cls-3" d="M79.14,30.45,78,36c-.25,1.25-.58,2-1,2.2l-1.22-.56a2.86,2.86,0,0,0,.56-1.87,5.8,5.8,0,0,0-.55-2.33,3.63,3.63,0,0,0-1.2-1.65,2.3,2.3,0,0,0-1.45.83A3.46,3.46,0,0,0,72.32,34h.58a1.56,1.56,0,0,1,1.15.47,1.54,1.54,0,0,1,.47,1.12,2,2,0,0,1-.77,1.62,2.6,2.6,0,0,1-1.68.63,1.7,1.7,0,0,1-1.19-.42,1.4,1.4,0,0,1-.45-1.09,6.05,6.05,0,0,1,1.64-4.5,3.94,3.94,0,0,1,2.84-1.28,4.55,4.55,0,0,1,1.85,2.07l.45,1.66a10.8,10.8,0,0,1,.05-2.17l.34-1.84a2.15,2.15,0,0,0,0-.23,1.07,1.07,0,0,0-.64-1,3.25,3.25,0,0,0-1.55-.35,3.54,3.54,0,0,0-1.86.49,2.65,2.65,0,0,0-1.15,1.33H70.91a3.92,3.92,0,0,1,1.72-2.33,5.64,5.64,0,0,1,3.14-.86,4.73,4.73,0,0,1,1.92.38,5,5,0,0,1,1.9-1.36l1.14.76a5.17,5.17,0,0,0-2,1.41,2,2,0,0,1,.43,1.29A2.84,2.84,0,0,1,79.14,30.45Zm-5.78,5.48a.69.69,0,0,0-.68-.86,1,1,0,0,0-.66.26,1.05,1.05,0,0,0-.38.6.68.68,0,0,0,.13.61.66.66,0,0,0,.55.25,1,1,0,0,0,.66-.25A1.08,1.08,0,0,0,73.36,35.93Z" transform="translate(-1.15 -0.82)"/><path class="cls-3" d="M88,36.48a2.49,2.49,0,0,1-1.18,1.88l-1.24-.69a2.38,2.38,0,0,0,1-1.76l1.09-5.13a1.52,1.52,0,0,0-.48-1.51,2.25,2.25,0,0,0-1.56-.53,2.85,2.85,0,0,0-2,.77,3.36,3.36,0,0,0-1.07,1.78,7,7,0,0,0-.07.92,6.78,6.78,0,0,1-.13,1.12l-.15.71a4.36,4.36,0,0,1,.2-.54c.13-.35.23-.61.28-.8a6.17,6.17,0,0,1,1.16-1.77A2.44,2.44,0,0,1,85.58,30a1.37,1.37,0,0,1,1.08.48,1.29,1.29,0,0,1,.25,1.17,1.89,1.89,0,0,1-.74,1.14,2.06,2.06,0,0,1-1.3.5,1.32,1.32,0,0,1-1-.46,17.9,17.9,0,0,0-1.76,4.82H80.5l.33-1.62A9.08,9.08,0,0,0,81,33.46a8.58,8.58,0,0,1,0-2.21,4.63,4.63,0,0,1,1.86-2.84,5.25,5.25,0,0,1,3.16-1,3.55,3.55,0,0,1,2.5.84,2.57,2.57,0,0,1,.68,2.61Zm-2-4.81a.63.63,0,0,0-.1-.56.62.62,0,0,0-.51-.23.89.89,0,0,0-.59.23,1,1,0,0,0-.34.56.59.59,0,0,0,.1.54.63.63,0,0,0,.5.21,1,1,0,0,0,.6-.21A1,1,0,0,0,86,31.67Z" transform="translate(-1.15 -0.82)"/><path class="cls-3" d="M93.75,21.44c-1,2.8-2.82,4.19-5.4,4.19A3.15,3.15,0,0,1,86.16,25a1.52,1.52,0,0,1-.48-1.57,2.2,2.2,0,0,1,.78-1.24,2,2,0,0,1,1.34-.51,1.35,1.35,0,0,1,1.16.52,1.46,1.46,0,0,1,.22,1.23,1.49,1.49,0,0,1-.58,1q2.63-.11,3.66-3Zm-5.58,2a.6.6,0,0,0-.1-.56.59.59,0,0,0-.5-.23.88.88,0,0,0-.59.23,1.07,1.07,0,0,0-.35.56.69.69,0,0,0,.12.54.58.58,0,0,0,.49.21,1,1,0,0,0,.61-.21A.81.81,0,0,0,88.17,23.44Z" transform="translate(-1.15 -0.82)"/><path class="cls-3" d="M99.38,30.45,98.22,36c-.26,1.25-.58,2-1,2.2L96,37.62a2.86,2.86,0,0,0,.55-1.87A5.78,5.78,0,0,0,96,33.42a3.71,3.71,0,0,0-1.21-1.65,2.28,2.28,0,0,0-1.44.83A3.46,3.46,0,0,0,92.57,34h.58a1.59,1.59,0,0,1,1.15.47,1.53,1.53,0,0,1,.46,1.12A2,2,0,0,1,94,37.22a2.58,2.58,0,0,1-1.68.63,1.67,1.67,0,0,1-1.18-.42,1.41,1.41,0,0,1-.46-1.09,6,6,0,0,1,1.65-4.5,3.94,3.94,0,0,1,2.83-1.28A4.55,4.55,0,0,1,97,32.63l.46,1.66a10.09,10.09,0,0,1,.05-2.17l.33-1.84a1,1,0,0,0,0-.23,1.08,1.08,0,0,0-.65-1,3.23,3.23,0,0,0-1.55-.35,3.48,3.48,0,0,0-1.85.49,2.65,2.65,0,0,0-1.15,1.33H91.15a3.93,3.93,0,0,1,1.73-2.33A5.6,5.6,0,0,1,96,27.37a4.78,4.78,0,0,1,1.93.38,5,5,0,0,1,1.9-1.36l1.13.76A5.21,5.21,0,0,0,99,28.56a2.09,2.09,0,0,1,.43,1.29A2.92,2.92,0,0,1,99.38,30.45ZM93.6,35.93a.69.69,0,0,0-.12-.6.68.68,0,0,0-.56-.26,1,1,0,0,0-.66.26,1,1,0,0,0-.37.6.67.67,0,0,0,.68.86,1,1,0,0,0,.65-.25A1,1,0,0,0,93.6,35.93Z" transform="translate(-1.15 -0.82)"/><path class="cls-3" d="M105.74,36a2.3,2.3,0,0,1-.86,1.36,2.27,2.27,0,0,1-1.46.56,1.56,1.56,0,0,1-1.31-.59,1.71,1.71,0,0,1-.28-1.46l2.65-12.47-2,2.22-.94-.3a17.29,17.29,0,0,0,.23-4.42h1.36a28.53,28.53,0,0,1-.3,3l2.37-2.81a1.23,1.23,0,0,1,.82.48,1.08,1.08,0,0,1,.19,1l-2.45,11.59a1.57,1.57,0,0,1,.46-.05A1.49,1.49,0,0,1,105.74,36Zm-1.06,0a.71.71,0,0,0-.12-.61.68.68,0,0,0-.56-.25,1,1,0,0,0-.66.25A1.06,1.06,0,0,0,103,36a.69.69,0,0,0,.12.6.68.68,0,0,0,.56.26,1.15,1.15,0,0,0,1-.86Z" transform="translate(-1.15 -0.82)"/><path class="cls-3" d="M115.51,36.49a2.47,2.47,0,0,1-1.18,1.87l-1.24-.69a2.38,2.38,0,0,0,1-1.76l1.34-6.39c.12-.52,0-.78-.2-.78a.58.58,0,0,0-.53.38l-4.82,8.55h-1.77l1.36-6.48a2.48,2.48,0,0,1-.42,0,1.48,1.48,0,0,1-1.25-.57,1.57,1.57,0,0,1-.27-1.38,2.38,2.38,0,0,1,.85-1.33,2.18,2.18,0,0,1,1.47-.56,1.52,1.52,0,0,1,1.3.58,1.72,1.72,0,0,1,.27,1.46l-.81,3.77a19.86,19.86,0,0,1-.86,2.67c.34-.74.74-1.56,1.21-2.47l2.38-4.5a2.39,2.39,0,0,1,2.22-1.51c1.26,0,1.74.73,1.44,2.15Zm-5.22-7.17a.72.72,0,0,0-.13-.61.66.66,0,0,0-.55-.25,1,1,0,0,0-.66.25,1.08,1.08,0,0,0-.38.61.69.69,0,0,0,.68.86,1,1,0,0,0,.66-.26A1.05,1.05,0,0,0,110.29,29.32Z" transform="translate(-1.15 -0.82)"/><path class="cls-3" d="M125.53,35.12q-.57,2.76-4.31,2.76t-3.13-2.76l.25-1.16a2.29,2.29,0,0,1,1.39-1.71,2.12,2.12,0,0,1-.66-2.3,3.37,3.37,0,0,1,1-1.83,2.61,2.61,0,0,1,1.85-.72,1.54,1.54,0,0,1,1.19.47,1.31,1.31,0,0,1,.28,1.22,2.21,2.21,0,0,1-.73,1.19,2.07,2.07,0,0,1-1.37.5,1.72,1.72,0,0,1-.68-.12c0,.64.24,1,.71,1h1.79l-.28,1.23H121a1,1,0,0,0-.73.35,1.78,1.78,0,0,0-.43.81l-.23,1.15c-.2.9.41,1.35,1.85,1.35s2.27-.45,2.47-1.36l1.39-6.57a2.44,2.44,0,0,1,1.18-1.84l1.39.58a2.4,2.4,0,0,0-1.13,1.85Zm-3.08-6a.63.63,0,0,0-.11-.58.65.65,0,0,0-.54-.23.89.89,0,0,0-.62.23,1,1,0,0,0-.34.58.67.67,0,0,0,.1.58.63.63,0,0,0,.53.22,1,1,0,0,0,.63-.22A1,1,0,0,0,122.45,29.12Z" transform="translate(-1.15 -0.82)"/></svg>